ffmpeg started on 2016-12-06 at 23:39:51
Report written to "Output/x264/results/ffmpeg/sintelmedium10000k.log"
Command line:
Tools/ffmpeg/ffmpeg -benchmark -y -i Input/y4m/sintel.y4m -c:v libx264 -preset medium -b:v 10000k -an Output/x264/encoded/sintelmedium10000k.mkv
ffmpeg version N-82227-gdb23fde Copyright (c) 2000-2016 the FFmpeg developers
  built with gcc 5.4.0 (Ubuntu 5.4.0-6ubuntu1~16.04.2) 20160609
  configuration: --prefix=/home/jaroslav/ffmpeg_build --pkg-config-flags=--static --extra-cflags=-I/home/jaroslav/ffmpeg_build/include --extra-ldflags=-L/home/jaroslav/ffmpeg_build/lib --bindir=/home/jaroslav/bin --enable-gpl --enable-libass --enable-libfdk-aac --enable-libfreetype --enable-libmp3lame --enable-libopus --enable-libtheora --enable-libvorbis --enable-libvpx --enable-libx264 --enable-libx265 --enable-nvenc --enable-libmfx --enable-libxvid --enable-libgsm --enable-libopencore-amrnb --enable-version3 --enable-nonfree
  libavutil      55. 35.100 / 55. 35.100
  libavcodec     57. 66.101 / 57. 66.101
  libavformat    57. 57.100 / 57. 57.100
  libavdevice    57.  2.100 / 57.  2.100
  libavfilter     6. 66.100 /  6. 66.100
  libswscale      4.  3.100 /  4.  3.100
  libswresample   2.  4.100 /  2.  4.100
  libpostproc    54.  2.100 / 54.  2.100
Input #0, yuv4mpegpipe, from 'Input/y4m/sintel.y4m':
  Duration: 00:00:20.83, start: 0.000000, bitrate: 2057307 kb/s
    Stream #0:0: Video: rawvideo (I420 / 0x30323449), yuv420p(progressive), 4096x1744, SAR 1:1 DAR 256:109, 24 fps, 24 tbr, 24 tbn, 24 tbc
[libx264 @ 0x318d1c0] using SAR=1/1
[libx264 @ 0x318d1c0] using cpu capabilities: MMX2 SSE2Fast SSSE3 SSE4.2 AVX FMA3 AVX2 LZCNT BMI2
[libx264 @ 0x318d1c0] profile High, level 5.1
[libx264 @ 0x318d1c0] 264 - core 148 - H.264/MPEG-4 AVC codec - Copyleft 2003-2016 - http://www.videolan.org/x264.html - options: cabac=1 ref=3 deblock=1:0:0 analyse=0x3:0x113 me=hex subme=7 psy=1 psy_rd=1.00:0.00 mixed_ref=1 me_range=16 chroma_me=1 trellis=1 8x8dct=1 cqm=0 deadzone=21,11 fast_pskip=1 chroma_qp_offset=-2 threads=6 lookahead_threads=1 sliced_threads=0 nr=0 decimate=1 interlaced=0 bluray_compat=0 constrained_intra=0 bframes=3 b_pyramid=2 b_adapt=1 b_bias=0 direct=1 weightb=1 open_gop=0 weightp=2 keyint=250 keyint_min=24 scenecut=40 intra_refresh=0 rc_lookahead=40 rc=abr mbtree=1 bitrate=10000 ratetol=1.0 qcomp=0.60 qpmin=0 qpmax=69 qpstep=4 ip_ratio=1.40 aq=1:1.00
Output #0, matroska, to 'Output/x264/encoded/sintelmedium10000k.mkv':
  Metadata:
    encoder         : Lavf57.57.100
    Stream #0:0: Video: h264 (libx264) (H264 / 0x34363248), yuv420p, 4096x1744 [SAR 1:1 DAR 256:109], q=-1--1, 10000 kb/s, 24 fps, 1k tbn, 24 tbc
    Metadata:
      encoder         : Lavc57.66.101 libx264
    Side data:
      cpb: bitrate max/min/avg: 0/0/10000000 buffer size: 0 vbv_delay: -1
Stream mapping:
  Stream #0:0 -> #0:0 (rawvideo (native) -> h264 (libx264))
Press [q] to stop, [?] for help
frame=    9 fps=0.0 q=0.0 size=       0kB time=00:00:00.00 bitrate=N/A speed=   0x    frame=   18 fps= 17 q=0.0 size=       0kB time=00:00:00.00 bitrate=N/A speed=   0x    frame=   27 fps= 17 q=0.0 size=       0kB time=00:00:00.00 bitrate=N/A speed=   0x    frame=   36 fps= 17 q=0.0 size=       0kB time=00:00:00.00 bitrate=N/A speed=   0x    frame=   41 fps= 16 q=0.0 size=       0kB time=00:00:00.00 bitrate=N/A speed=   0x    frame=   47 fps=9.1 q=0.0 size=       0kB time=00:00:00.00 bitrate=N/A speed=   0x    frame=   48 fps=5.7 q=0.0 size=       0kB time=00:00:00.00 bitrate=N/A speed=   0x    frame=   49 fps=4.6 q=0.0 size=       0kB time=00:00:00.00 bitrate=N/A speed=   0x    frame=   54 fps=4.7 q=34.0 size=       1kB time=00:00:00.04 bitrate= 136.6kbits/s speed=0.00375x    frame=   57 fps=4.7 q=42.0 size=       1kB time=00:00:00.16 bitrate=  35.0kbits/s speed=0.0138x    frame=   61 fps=4.7 q=43.0 size=       1kB time=00:00:00.33 bitrate=  17.6kbits/s speed=0.0255x    frame=   66 fps=4.8 q=42.0 size=       1kB time=00:00:00.54 bitrate=  10.8kbits/s speed=0.0396x    frame=   71 fps=5.0 q=42.0 size=       1kB time=00:00:00.75 bitrate=   7.8kbits/s speed=0.0527x    frame=   75 fps=5.1 q=41.0 size=       1kB time=00:00:00.91 bitrate=   6.4kbits/s speed=0.0622x    frame=   79 fps=5.2 q=41.0 size=       1kB time=00:00:01.08 bitrate=   5.4kbits/s speed=0.0709x    frame=   84 fps=5.3 q=40.0 size=       1kB time=00:00:01.29 bitrate=   4.5kbits/s speed=0.0811x    frame=   88 fps=5.3 q=40.0 size=       1kB time=00:00:01.45 bitrate=   4.0kbits/s speed=0.0885x    frame=   93 fps=5.5 q=40.0 size=       1kB time=00:00:01.66 bitrate=   3.5kbits/s speed=0.0982x    frame=   97 fps=5.5 q=39.0 size=       1kB time=00:00:01.83 bitrate=   3.2kbits/s speed=0.105x    frame=  102 fps=5.7 q=39.0 size=       1kB time=00:00:02.04 bitrate=   2.9kbits/s speed=0.113x    frame=  105 fps=5.6 q=39.0 size=       1kB time=00:00:02.16 bitrate=   2.7kbits/s speed=0.116x    frame=  110 fps=5.7 q=39.0 size=       1kB time=00:00:02.37 bitrate=   2.5kbits/s speed=0.123x    frame=  115 fps=5.8 q=38.0 size=       1kB time=00:00:02.58 bitrate=   2.3kbits/s speed=0.13x    frame=  118 fps=5.8 q=38.0 size=       1kB time=00:00:02.70 bitrate=   2.2kbits/s speed=0.132x    frame=  122 fps=5.8 q=38.0 size=       1kB time=00:00:02.87 bitrate=   2.0kbits/s speed=0.136x    frame=  126 fps=5.8 q=38.0 size=       1kB time=00:00:03.04 bitrate=   1.9kbits/s speed=0.14x    frame=  130 fps=5.8 q=38.0 size=       1kB time=00:00:03.20 bitrate=   1.8kbits/s speed=0.144x    frame=  134 fps=5.8 q=37.0 size=       1kB time=00:00:03.37 bitrate=   1.7kbits/s speed=0.147x    frame=  138 fps=5.8 q=37.0 size=       1kB time=00:00:03.54 bitrate=   1.7kbits/s speed=0.15x    frame=  142 fps=5.9 q=35.0 size=    5141kB time=00:00:03.70 bitrate=11355.3kbits/s speed=0.153x    frame=  147 fps=5.9 q=37.0 size=    5368kB time=00:00:03.91 bitrate=11223.2kbits/s speed=0.159x    frame=  152 fps=6.0 q=37.0 size=    5368kB time=00:00:04.12 bitrate=10657.4kbits/s speed=0.163x    frame=  157 fps=6.1 q=37.0 size=    5368kB time=00:00:04.33 bitrate=10146.0kbits/s speed=0.168x    frame=  160 fps=6.1 q=36.0 size=    5368kB time=00:00:04.45 bitrate=9861.5kbits/s speed=0.169x    frame=  165 fps=6.1 q=36.0 size=    5368kB time=00:00:04.66 bitrate=9420.0kbits/s speed=0.173x    frame=  171 fps=6.1 q=36.0 size=    5368kB time=00:00:04.91 bitrate=8941.2kbits/s speed=0.177x    frame=  177 fps=6.2 q=36.0 size=    5368kB time=00:00:05.16 bitrate=8508.6kbits/s speed=0.182x    frame=  180 fps=6.2 q=36.0 size=    5368kB time=00:00:05.29 bitrate=8307.7kbits/s speed=0.183x    frame=  184 fps=6.2 q=36.0 size=    5368kB time=00:00:05.45 bitrate=8055.1kbits/s speed=0.185x    frame=  188 fps=6.2 q=36.0 size=    5368kB time=00:00:05.62 bitrate=7816.0kbits/s speed=0.187x    frame=  193 fps=6.3 q=36.0 size=    5368kB time=00:00:05.83 bitrate=7537.3kbits/s speed=0.191x    frame=  198 fps=6.3 q=36.0 size=    5368kB time=00:00:06.04 bitrate=7276.6kbits/s speed=0.193x    frame=  202 fps=6.4 q=33.0 size=    5368kB time=00:00:06.20 bitrate=7082.1kbits/s speed=0.195x    frame=  206 fps=6.4 q=36.0 size=    5368kB time=00:00:06.37 bitrate=6896.6kbits/s speed=0.197x    frame=  212 fps=6.4 q=35.0 size=    7946kB time=00:00:06.62 bitrate=9823.9kbits/s speed=0.201x    frame=  216 fps=6.5 q=35.0 size=    7946kB time=00:00:06.79 bitrate=9582.4kbits/s speed=0.203x    frame=  220 fps=6.4 q=35.0 size=    7946kB time=00:00:06.95 bitrate=9353.8kbits/s speed=0.204x    frame=  225 fps=6.5 q=35.0 size=    7946kB time=00:00:07.16 bitrate=9081.1kbits/s speed=0.206x    frame=  230 fps=6.5 q=35.0 size=    7946kB time=00:00:07.37 bitrate=8825.0kbits/s speed=0.209x    frame=  233 fps=6.5 q=35.0 size=    7946kB time=00:00:07.50 bitrate=8678.0kbits/s speed=0.209x    frame=  240 fps=6.6 q=35.0 size=    9063kB time=00:00:07.79 bitrate=9526.7kbits/s speed=0.213x    frame=  246 fps=6.6 q=35.0 size=    9063kB time=00:00:08.04 bitrate=9230.6kbits/s speed=0.216x    frame=  250 fps=6.6 q=35.0 size=    9063kB time=00:00:08.20 bitrate=9044.0kbits/s speed=0.217x    frame=  255 fps=6.6 q=35.0 size=    9063kB time=00:00:08.41 bitrate=8819.4kbits/s speed=0.219x    frame=  259 fps=6.6 q=35.0 size=    9063kB time=00:00:08.58 bitrate=8648.9kbits/s speed=0.22x    frame=  264 fps=6.7 q=34.0 size=    9063kB time=00:00:08.79 bitrate=8443.3kbits/s speed=0.222x    frame=  268 fps=6.7 q=34.0 size=    9063kB time=00:00:08.95 bitrate=8286.9kbits/s speed=0.223x    frame=  274 fps=6.7 q=34.0 size=    9063kB time=00:00:09.20 bitrate=8061.9kbits/s speed=0.227x    frame=  277 fps=6.7 q=34.0 size=    9063kB time=00:00:09.33 bitrate=7953.9kbits/s speed=0.227x    frame=  284 fps=6.8 q=34.0 size=    9063kB time=00:00:09.62 bitrate=7712.6kbits/s speed=0.229x    frame=  291 fps=6.8 q=34.0 size=    9063kB time=00:00:09.91 bitrate=7485.6kbits/s speed=0.233x    frame=  298 fps=6.9 q=34.0 size=    9063kB time=00:00:10.20 bitrate=7272.2kbits/s speed=0.237x    frame=  302 fps=6.9 q=34.0 size=    9063kB time=00:00:10.37 bitrate=7155.2kbits/s speed=0.237x    frame=  308 fps=6.9 q=34.0 size=    9063kB time=00:00:10.62 bitrate=6986.8kbits/s speed=0.24x    frame=  312 fps=6.9 q=33.0 size=    9063kB time=00:00:10.79 bitrate=6878.7kbits/s speed=0.238x    frame=  321 fps=7.0 q=33.0 size=   12294kB time=00:00:11.16 bitrate=9017.9kbits/s speed=0.244x    frame=  325 fps=7.0 q=33.0 size=   12294kB time=00:00:11.33 bitrate=8885.8kbits/s speed=0.245x    frame=  330 fps=7.0 q=33.0 size=   12294kB time=00:00:11.54 bitrate=8724.9kbits/s speed=0.246x    frame=  336 fps=7.1 q=33.0 size=   12294kB time=00:00:11.79 bitrate=8540.0kbits/s speed=0.249x    frame=  339 fps=7.1 q=33.0 size=   12294kB time=00:00:11.91 bitrate=8450.4kbits/s speed=0.249x    frame=  346 fps=7.1 q=33.0 size=   12294kB time=00:00:12.20 bitrate=8249.0kbits/s speed=0.252x    frame=  354 fps=7.2 q=32.0 size=   12294kB time=00:00:12.54 bitrate=8029.3kbits/s speed=0.255x    frame=  362 fps=7.3 q=32.0 size=   12294kB time=00:00:12.87 bitrate=7821.7kbits/s speed=0.259x    frame=  370 fps=7.3 q=32.0 size=   12294kB time=00:00:13.20 bitrate=7624.5kbits/s speed=0.261x    frame=  378 fps=7.4 q=31.0 size=   12294kB time=00:00:13.54 bitrate=7436.5kbits/s speed=0.265x    frame=  384 fps=7.4 q=31.0 size=   12294kB time=00:00:13.79 bitrate=7301.7kbits/s speed=0.267x    frame=  390 fps=7.5 q=31.0 size=   12294kB time=00:00:14.04 bitrate=7171.7kbits/s speed=0.269x    frame=  395 fps=7.5 q=31.0 size=   12294kB time=00:00:14.25 bitrate=7067.0kbits/s speed=0.271x    frame=  402 fps=7.6 q=31.0 size=   12294kB time=00:00:14.54 bitrate=6925.1kbits/s speed=0.273x    frame=  408 fps=7.6 q=28.0 size=   12294kB time=00:00:14.79 bitrate=6808.1kbits/s speed=0.275x    frame=  416 fps=7.7 q=30.0 size=   15430kB time=00:00:15.12 bitrate=8356.8kbits/s speed=0.278x    frame=  418 fps=7.6 q=30.0 size=   15430kB time=00:00:15.20 bitrate=8311.2kbits/s speed=0.277x    frame=  425 fps=7.7 q=30.0 size=   15430kB time=00:00:15.50 bitrate=8154.6kbits/s speed=0.28x    frame=  428 fps=7.6 q=30.0 size=   15430kB time=00:00:15.62 bitrate=8089.4kbits/s speed=0.279x    frame=  434 fps=7.7 q=30.0 size=   15430kB time=00:00:15.87 bitrate=7962.0kbits/s speed=0.281x    frame=  438 fps=7.7 q=30.0 size=   15430kB time=00:00:16.04 bitrate=7879.1kbits/s speed=0.281x    frame=  444 fps=7.7 q=30.0 size=   15430kB time=00:00:16.29 bitrate=7758.2kbits/s speed=0.282x    frame=  448 fps=7.7 q=30.0 size=   15430kB time=00:00:16.45 bitrate=7680.0kbits/s speed=0.282x    frame=  451 fps=7.7 q=30.0 size=   15430kB time=00:00:16.58 bitrate=7622.1kbits/s speed=0.282x    frame=  457 fps=7.7 q=30.0 size=   15430kB time=00:00:16.83 bitrate=7508.9kbits/s speed=0.282x    frame=  465 fps=7.7 q=30.0 size=   15430kB time=00:00:17.16 bitrate=7362.8kbits/s speed=0.284x    frame=  474 fps=7.7 q=30.0 size=   18200kB time=00:00:17.54 bitrate=8498.9kbits/s speed=0.286x    frame=  479 fps=7.7 q=30.0 size=   18200kB time=00:00:17.75 bitrate=8399.4kbits/s speed=0.287x    frame=  486 fps=7.8 q=30.0 size=   18200kB time=00:00:18.04 bitrate=8263.4kbits/s speed=0.288x    frame=  494 fps=7.8 q=30.0 size=   18200kB time=00:00:18.37 bitrate=8113.7kbits/s speed=0.29x    frame=  500 fps=7.8 q=30.0 size=   18200kB time=00:00:18.62 bitrate=8004.8kbits/s speed=0.291x    frame=  500 fps=7.3 q=-1.0 Lsize=   22323kB time=00:00:20.70 bitrate=8830.3kbits/s speed=0.304x    
video:22318kB audio:0kB subtitle:0kB other streams:0kB global headers:0kB muxing overhead: 0.021866%
bench: utime=221.152s
bench: maxrss=1577536kB
[libx264 @ 0x318d1c0] frame I:8     Avg QP:25.04  size:156263
[libx264 @ 0x318d1c0] frame P:269   Avg QP:30.28  size: 55352
[libx264 @ 0x318d1c0] frame B:223   Avg QP:28.02  size: 30102
[libx264 @ 0x318d1c0] consecutive B-frames: 37.0%  8.4%  6.6% 48.0%
[libx264 @ 0x318d1c0] mb I  I16..4: 24.1% 70.6%  5.2%
[libx264 @ 0x318d1c0] mb P  I16..4: 18.8% 22.5%  0.4%  P16..4: 25.2%  2.8%  0.9%  0.0%  0.0%    skip:29.4%
[libx264 @ 0x318d1c0] mb B  I16..4:  1.4%  2.5%  0.2%  B16..8: 31.0%  2.3%  0.3%  direct: 1.1%  skip:61.2%  L0:42.6% L1:54.5% BI: 2.9%
[libx264 @ 0x318d1c0] final ratefactor: 27.07
[libx264 @ 0x318d1c0] 8x8 transform intra:55.5% inter:91.0%
[libx264 @ 0x318d1c0] coded y,uvDC,uvAC intra: 17.0% 25.4% 2.2% inter: 6.9% 6.8% 0.1%
[libx264 @ 0x318d1c0] i16 v,h,dc,p: 28% 31%  8% 33%
[libx264 @ 0x318d1c0] i8 v,h,dc,ddl,ddr,vr,hd,vl,hu: 23% 17% 39%  4%  3%  3%  4%  3%  3%
[libx264 @ 0x318d1c0] i4 v,h,dc,ddl,ddr,vr,hd,vl,hu: 21% 24% 11%  5% 10%  8% 11%  5%  5%
[libx264 @ 0x318d1c0] i8c dc,h,v,p: 73% 13% 12%  2%
[libx264 @ 0x318d1c0] Weighted P-Frames: Y:1.1% UV:0.7%
[libx264 @ 0x318d1c0] ref P L0: 69.1% 18.3%  9.2%  3.5%  0.0%
[libx264 @ 0x318d1c0] ref B L0: 92.8%  6.0%  1.3%
[libx264 @ 0x318d1c0] ref B L1: 97.9%  2.1%
[libx264 @ 0x318d1c0] kb/s:8775.41
